<svg id="Layer_3" enable-background="new 0 0 64 64" height="512" viewBox="0 0 64 64" width="512" xmlns="http://www.w3.org/2000/svg"><g><path d="m12 48h50v-46h-50v28" fill="#c8cded"/><path d="m12 2v28 12h39c1.105 0 2-.895 2-2v-38z" fill="#e2e7f6"/><path d="m22 52h.838c1.888 0 3.565-1.208 4.162-3h-2c-1.105 0-2-.895-2-2v-3-4-4c0-3.314-2.686-6-6-6h-6c-3.314 0-6 2.686-6 6v4 4 3c0 1.105-.895 2-2 2h-2c.597 1.792 2.274 3 4.162 3h.838" fill="#4c506e"/><path d="m24 62v-6.531c0-1.991-1.464-3.678-3.434-3.96l-3.566-.509v-3h-6v3l-3.566.509c-1.97.282-3.434 1.97-3.434 3.96v6.531" fill="#ba4753"/><g fill="#f2b9a1"><path d="m11 51 1.364 5h3.272l1.364-5v-3h-6z"/><path d="m20 40h2c1.105 0 2 .895 2 2 0 1.105-.895 2-2 2h-3"/><path d="m8 40h-2c-1.105 0-2 .895-2 2 0 1.105.895 2 2 2h4"/></g><path d="m7 62v-6h14v6" fill="#4c506e"/><g><path d="m27 30c-7.168 0-13-5.832-13-13s5.832-13 13-13v2c-6.065 0-11 4.935-11 11s4.935 11 11 11 11-4.935 11-11c0-1.599-.335-3.141-.997-4.583l1.818-.834c.783 1.706 1.179 3.528 1.179 5.417 0 7.168-5.832 13-13 13z" fill="#546ded"/></g><g><path d="m27 27c-5.514 0-10-4.486-10-10s4.486-10 10-10v2c-4.411 0-8 3.589-8 8s3.589 8 8 8 8-3.589 8-8h2c0 5.514-4.486 10-10 10z" fill="#e1656e"/></g><g><path d="m27 24c-3.859 0-7-3.141-7-7h2c0 2.757 2.243 5 5 5s5-2.243 5-5c0-.988-.288-1.944-.833-2.764l1.666-1.107c.764 1.148 1.167 2.487 1.167 3.871 0 3.859-3.141 7-7 7z" fill="#546ded"/></g><g><path d="m43 43h16v2h-16z" fill="#4c506e"/></g><g><path d="m39 43h2v2h-2z" fill="#4c506e"/></g><g><path d="m43 39h16v2h-16z" fill="#4c506e"/></g><g><path d="m39 39h2v2h-2z" fill="#4c506e"/></g><g><path d="m43 35h16v2h-16z" fill="#4c506e"/></g><g><path d="m39 35h2v2h-2z" fill="#4c506e"/></g><g><path d="m43 31h16v2h-16z" fill="#4c506e"/></g><g><path d="m39 31h2v2h-2z" fill="#4c506e"/></g><g><path d="m41.707 14.707-1.414-1.414 8-8c.187-.188.441-.293.707-.293h10v2h-9.586z" fill="#e1656e"/></g><g><path d="m49 9h10v2h-10z" fill="#546ded"/></g><path d="m11 48v3l.545 2h3.455c.552 0 1-.448 1-1v-4z" fill="#fbe1ca"/><path d="m16 35c0 1.657 1.343 3 3 3h1v5c0 3.314-2.686 6-6 6-3.314 0-6-2.686-6-6v-5h5c1.657 0 3-1.343 3-3z" fill="#fbe1ca"/><path d="m7 56v4h11c.552 0 1-.448 1-1v-3z" fill="#787faa"/><g><path d="m1 61h26v2h-26z" fill="#787faa"/></g></g></svg>