<svg id="Layer_3" enable-background="new 0 0 64 64" height="512" viewBox="0 0 64 64" width="512" xmlns="http://www.w3.org/2000/svg"><g><path d="m51 28c1.105 0 2 .895 2 2v22c0 1.105-.895 2-2 2h-38c-1.105 0-2-.895-2-2v-22c0-1.105.895-2 2-2z" fill="#4c506e"/><path d="m42 58h-20c-1.105 0-2 .895-2 2v2h24v-2c0-1.105-.895-2-2-2z" fill="#4c506e"/><path d="m38 58-4-4h-4l-4 4" fill="#787faa"/><path d="m14 31h36v20h-36z" fill="#fff"/><path d="m24 12-6 4v16c0 1.105.895 2 2 2h24c1.105 0 2-.895 2-2v-16l-6-4" fill="#ba4753"/><path d="m20 34h24c.552 0 1.052-.224 1.414-.586l-9.414-9.414h-8l-9.414 9.414c.362.362.862.586 1.414.586z" fill="#8d353e"/><path d="m24 12-6 4 14 12 14-12-6-4z" fill="#e1656e"/><path d="m40 21v-19h-16v19" fill="#c8cded"/><g><path d="m26 4h2v2h-2z" fill="#e2e7f6"/></g><g><path d="m29 4h9v2h-9z" fill="#e2e7f6"/></g><g><path d="m26 8h2v2h-2z" fill="#e2e7f6"/></g><g><path d="m29 8h9v2h-9z" fill="#e2e7f6"/></g><g><path d="m26 12h2v2h-2z" fill="#e2e7f6"/></g><g><path d="m29 12h9v2h-9z" fill="#e2e7f6"/></g><g><path d="m26 16h2v2h-2z" fill="#e2e7f6"/></g><g><path d="m29 16h9v2h-9z" fill="#e2e7f6"/></g></g></svg>