<svg id="Layer_3" enable-background="new 0 0 64 64" height="512" viewBox="0 0 64 64" width="512" xmlns="http://www.w3.org/2000/svg"><g><path d="m38 12.916c-1.894-.595-3.91-.916-6-.916-11.046 0-20 8.954-20 20s8.954 20 20 20 20-8.954 20-20c0-2.09-.321-4.106-.916-6" fill="#4c506e"/><path d="m22.817 49.755 9.183-17.755h-20c0 7.732 4.395 14.426 10.817 17.755z" fill="#f2b9a1"/><path d="m32 12v20h20c0-11.046-8.954-20-20-20z" fill="#ba4753"/><path d="m32 12v20h-20c0-11.046 8.954-20 20-20z" fill="#546ded"/><path d="m22 44h3.793l6.207-12h-10z" fill="#fbe1ca"/><path d="m22 19h10v13h-10z" fill="#7fa3f8"/><path d="m32 19h14v13h-14z" fill="#e1656e"/><path d="m46 44v-12h-14l-6.24 12z" fill="#787faa"/><path d="m38 26h16c0-8.837-7.163-16-16-16z" fill="#f29b99"/><g><path d="m45.707 19.707-1.414-1.414 11-11c.187-.188.442-.293.707-.293h7v2h-6.586z" fill="#4c506e"/></g><g><path d="m56 11h7v2h-7z" fill="#4c506e"/></g><g><path d="m63 57h-7c-.265 0-.52-.105-.707-.293l-16-16 1.414-1.414 15.707 15.707h6.586z" fill="#4c506e"/></g><g><path d="m56 51h7v2h-7z" fill="#4c506e"/></g><g><path d="m23.293 24.707-15.707-15.707h-6.586v-2h7c.265 0 .52.105.707.293l16 16z" fill="#4c506e"/></g><g><path d="m1 11h7v2h-7z" fill="#4c506e"/></g><g><path d="m8 57h-7v-2h6.586l15.707-15.707 1.414 1.414-16 16c-.187.188-.442.293-.707.293z" fill="#4c506e"/></g><g><path d="m1 51h7v2h-7z" fill="#4c506e"/></g></g></svg>