<svg id="Layer_3" enable-background="new 0 0 64 64" height="512" viewBox="0 0 64 64" width="512" xmlns="http://www.w3.org/2000/svg"><g><path d="m55 2 7 6h-9" fill="#e1656e"/><circle cx="41.5" cy="10.5" fill="#f2b9a1" r="3.5"/><path d="m28 38v-3l5-5 1-4h2l4 3v9h3v-10l-5-5 2-3h13v-3h-14l-3-3h-2l-4-9-3 1 5 11h2l-3 7-1 4-6 7v3z" fill="#e1656e"/><g><path d="m37.876 13.5h26.249v2h-26.249z" fill="#4c506e" transform="matrix(.305 -.953 .953 .305 21.653 58.659)"/></g><path d="m24 42h18v20h-18z" fill="#3d54bd"/><path d="m2 52h18v10h-18z" fill="#3d54bd"/><g fill="#546ded"><path d="m24 42v17h8c1.105 0 2-.895 2-2v-15z"/><path d="m37.5 59c-.828 0-1.5-.672-1.5-1.5v-12c0-.828.672-1.5 1.5-1.5.828 0 1.5.672 1.5 1.5v12c0 .828-.672 1.5-1.5 1.5z"/><path d="m17 55h-13c-.552 0-1-.448-1-1 0-.552.448-1 1-1h13c.552 0 1 .448 1 1 0 .552-.448 1-1 1z"/><path d="m8 59h9c.552 0 1 .448 1 1 0 .552-.448 1-1 1h-9c-.552 0-1-.448-1-1 0-.552.448-1 1-1z"/></g><path d="m46 10.5c0-2.481-2.019-4.5-4.5-4.5s-4.5 2.019-4.5 4.5 2.019 4.5 4.5 4.5 4.5-2.019 4.5-4.5zm-7 0c0-1.378 1.122-2.5 2.5-2.5s2.5 1.122 2.5 2.5-1.122 2.5-2.5 2.5-2.5-1.122-2.5-2.5z"/><path d="m39.414 16-2.707-2.707c-.187-.188-.442-.293-.707-.293h-1.35l-3.736-8.406c-.208-.47-.739-.703-1.23-.542l-3 1c-.269.09-.487.289-.6.549s-.111.556.006.813l5 11c.162.357.518.586.91.586h.483l-2.402 5.606c-.021.049-.038.1-.051.151l-.943 3.771-5.846 6.821c-.156.181-.241.412-.241.651v3c0 .552.448 1 1 1h4c.552 0 1-.448 1-1v-2.586l4.707-4.707c.128-.128.219-.289.263-.464l.811-3.243h.886l3.333 2.5v8.5c0 .552.448 1 1 1h3c.552 0 1-.448 1-1v-10c0-.265-.105-.52-.293-.707l-4.42-4.42 1.248-1.873h7.335l-1.823 5.695 1.905.609 2.018-6.304h3.03c.552 0 1-.448 1-1v-3c0-.552-.448-1-1-1h-1.43l2.24-7h8.19c.418 0 .792-.261.938-.653.145-.393.031-.834-.287-1.106l-7-6c-.255-.218-.603-.296-.924-.203-.322.091-.577.338-.68.657l-4.577 14.305zm9.096 3h-8.51c-.334 0-.646.167-.832.445l-2 3c-.265.396-.212.925.125 1.262l4.707 4.707v8.586h-1v-8c0-.315-.148-.611-.4-.8l-4-3c-.173-.13-.384-.2-.6-.2h-2c-.459 0-.859.312-.97.757l-.933 3.731-4.804 4.804c-.188.188-.293.443-.293.708v2h-2v-1.63l5.759-6.719c.101-.118.173-.258.211-.408l.98-3.922 2.968-6.926c.133-.309.101-.664-.084-.944-.184-.282-.498-.451-.834-.451h-1.356l-4.274-9.402 1.085-.362 3.631 8.17c.161.361.519.594.914.594h1.586l2.707 2.707c.187.188.442.293.707.293h9.83zm6.983-15.26 3.804 3.26h-4.847zm-4.563 14.26h1.07v1h-1.39z"/><path d="m43 62v-20c0-.552-.448-1-1-1h-18c-.552 0-1 .448-1 1v20c0 .552.448 1 1 1h18c.552 0 1-.448 1-1zm-2-1h-16v-18h16z"/><path d="m2 63h18c.552 0 1-.448 1-1v-10c0-.552-.448-1-1-1h-18c-.552 0-1 .448-1 1v10c0 .552.448 1 1 1zm1-10h16v8h-16z"/></g></svg>